<svg xmlns="http://www.w3.org/2000/svg" viewBox="0 0 48 48" width="48" height="48">
  <path d="M33.723,36.188c-.111-.044-.213-.085-.3-.126s-.228-.1-.365-.154c-.7-.279-1.055-.478-1.055-.792a.743.743,0,0,1,.458-.51,1.785,1.785,0,0,1,1.931.375A1,1,0,1,0,35.611,33.4,4.479,4.479,0,0,0,34,32.6V32a1,1,0,0,0-2,0v.642a3.349,3.349,0,0,0-.424.17A2.669,2.669,0,0,0,30,35.116c0,1.728,1.563,2.351,2.314,2.65.1.04.191.075.265.11.118.055.253.109.4.168.8.322,1.022.489,1.022.778a.743.743,0,0,1-.459.51,1.79,1.79,0,0,1-1.93-.375,1,1,0,0,0-1.222,1.583A4.462,4.462,0,0,0,32,41.334V42a1,1,0,0,0,2,0v-.723a3.381,3.381,0,0,0,.423-.151A2.668,2.668,0,0,0,36,38.822C36,37.1,34.462,36.484,33.723,36.188Z" fill="#969696" />
  <path d="M33,27A10,10,0,1,0,43,37,10.011,10.011,0,0,0,33,27Zm0,18a8,8,0,1,1,8-8A8.009,8.009,0,0,1,33,45Z" fill="#969696" />
  <path d="M16,16a2,2,0,0,0-2-2H12a2,2,0,0,0-2,2v2a2,2,0,0,0,2,2h2a2,2,0,0,0,2-2Zm-4,2V16h2v2Z" fill="#969696" />
  <path d="M16,24a2,2,0,0,0-2-2H12a2,2,0,0,0-2,2v2a2,2,0,0,0,2,2h2a2,2,0,0,0,2-2Zm-4,2V24h2v2Z" fill="#969696" />
  <path d="M14,30H12a2,2,0,0,0-2,2v2a2,2,0,0,0,2,2h2a2,2,0,0,0,2-2V32A2,2,0,0,0,14,30Zm-2,4V32h2v2Z" fill="#969696" />
  <path d="M21,41H10a3,3,0,0,1-3-3V6a3,3,0,0,1,3-3H28.34a2.988,2.988,0,0,1,.66.081V8a3,3,0,0,0,3,3h4.919a2.988,2.988,0,0,1,.081.66V25a1,1,0,0,0,2,0V11.66a5.035,5.035,0,0,0-1.463-3.537l-5.66-5.66A5.035,5.035,0,0,0,28.34,1H10A5.006,5.006,0,0,0,5,6V38a5.006,5.006,0,0,0,5,5H21a1,1,0,0,0,0-2ZM35.586,9H32a1,1,0,0,1-1-1V4.414Z" fill="#969696" />
  <path d="M24,9a1,1,0,0,0-1-1H11a1,1,0,0,0,0,2H23A1,1,0,0,0,24,9Z" fill="#969696" />
  <path d="M34,17a1,1,0,0,0-1-1H19a1,1,0,0,0,0,2H33A1,1,0,0,0,34,17Z" fill="#969696" />
  <path d="M28.99,25a1,1,0,0,0-1-1H19a1,1,0,0,0,0,2h8.99A1,1,0,0,0,28.99,25Z" fill="#969696" />
  <path d="M19,32a1,1,0,0,0,0,2h1.63a1,1,0,0,0,0-2Z" fill="#969696" />
</svg>
