<svg width="48" height="48" viewBox="0 0 64 64" fill="none" xmlns="http://www.w3.org/2000/svg">
  <path d="M18.13 47C19.1892 46.1872 19.9673 45.063 20.3548 43.7854C20.7424 42.5077 20.72 41.1408 20.2909 39.8765C19.8617 38.6122 19.0473 37.5141 17.962 36.7364C16.8767 35.9587 15.5751 35.5405 14.24 35.5405C12.9048 35.5405 11.6032 35.9587 10.5179 36.7364C9.43268 37.5141 8.61827 38.6122 8.1891 39.8765C7.75993 41.1408 7.73755 42.5077 8.12512 43.7854C8.51269 45.063 9.29074 46.1872 10.35 47C8.56271 47.637 6.96082 48.7063 5.6871 50.1126C4.41339 51.519 3.50742 53.2186 3.04998 55.06C2.99692 55.2337 2.99216 55.4185 3.03621 55.5947C3.08025 55.7709 3.17144 55.9317 3.29998 56.06C4.67804 57.6057 6.36733 58.8426 8.25704 59.6895C10.1467 60.5364 12.1942 60.9743 14.265 60.9743C16.3358 60.9743 18.3832 60.5364 20.2729 59.6895C22.1626 58.8426 23.8519 57.6057 25.23 56.06C25.3365 55.9389 25.4122 55.7937 25.4505 55.637C25.4888 55.4803 25.4886 55.3166 25.45 55.16C25.0071 53.2973 24.1053 51.575 22.8269 50.1498C21.5484 48.7247 19.9338 47.6419 18.13 47V47ZM9.84998 42C9.84999 41.1326 10.107 40.2846 10.5885 39.5631C11.07 38.8416 11.7544 38.279 12.5554 37.9461C13.3564 37.6133 14.2381 37.5252 15.0891 37.6929C15.9401 37.8607 16.7224 38.2768 17.3371 38.8888C17.9519 39.5008 18.3715 40.2811 18.5432 41.1314C18.7148 41.9816 18.6307 42.8637 18.3015 43.6662C17.9723 44.4687 17.4128 45.1557 16.6935 45.6404C15.9742 46.1252 15.1274 46.386 14.26 46.39V46.39C13.6822 46.3913 13.1097 46.2788 12.5754 46.0589C12.0411 45.839 11.5553 45.516 11.1458 45.1083C10.7363 44.7007 10.4111 44.2164 10.1887 43.683C9.9664 43.1497 9.85129 42.5778 9.84998 42V42ZM14.24 59C12.5356 58.9995 10.8487 58.6557 9.28013 57.9891C7.71151 57.3225 6.29325 56.3467 5.10998 55.12C5.69712 53.163 6.89953 51.4475 8.53879 50.2279C10.1781 49.0084 12.1668 48.3498 14.21 48.35H14.27C16.3144 48.3505 18.3041 49.0105 19.9436 50.232C21.583 51.4534 22.7846 53.1712 23.37 55.13C22.1848 56.3535 20.766 57.3266 19.1976 57.9913C17.6293 58.6561 15.9434 58.9991 14.24 59V59Z" fill="#969696"></path>
  <path d="M61 55.16C60.5543 53.294 59.648 51.5695 58.364 50.1441C57.0801 48.7186 55.4594 47.6377 53.65 47C54.7092 46.1872 55.4873 45.063 55.8748 43.7854C56.2624 42.5077 56.24 41.1408 55.8109 39.8765C55.3817 38.6122 54.5673 37.5141 53.482 36.7364C52.3968 35.9587 51.0951 35.5405 49.76 35.5405C48.4248 35.5405 47.1232 35.9587 46.038 36.7364C44.9527 37.5141 44.1383 38.6122 43.7091 39.8765C43.2799 41.1408 43.2576 42.5077 43.6451 43.7854C44.0327 45.063 44.8108 46.1872 45.87 47C44.0827 47.637 42.4808 48.7063 41.2071 50.1126C39.9334 51.519 39.0274 53.2186 38.57 55.06C38.5169 55.2337 38.5122 55.4185 38.5562 55.5947C38.6003 55.7709 38.6915 55.9317 38.82 56.06C40.1981 57.6057 41.8874 58.8426 43.7771 59.6895C45.6668 60.5364 47.7142 60.9743 49.785 60.9743C51.8558 60.9743 53.9032 60.5364 55.7929 59.6895C57.6826 58.8426 59.3719 57.6057 60.75 56.06C60.8618 55.9417 60.943 55.7978 60.9865 55.641C61.0301 55.4841 61.0347 55.319 61 55.16ZM45.37 42C45.37 41.1326 45.627 40.2846 46.1085 39.5631C46.59 38.8416 47.2744 38.279 48.0754 37.9461C48.8764 37.6133 49.7581 37.5252 50.6091 37.6929C51.4601 37.8607 52.2424 38.2768 52.8571 38.8888C53.4719 39.5008 53.8915 40.2811 54.0632 41.1314C54.2348 41.9816 54.1507 42.8637 53.8215 43.6662C53.4923 44.4687 52.9328 45.1557 52.2135 45.6404C51.4942 46.1252 50.6474 46.386 49.78 46.39V46.39C49.2022 46.3913 48.6297 46.2788 48.0954 46.0589C47.5611 45.839 47.0753 45.516 46.6658 45.1083C46.2563 44.7007 45.9311 44.2164 45.7087 43.683C45.4864 43.1497 45.3713 42.5778 45.37 42V42ZM49.76 59C48.0556 58.9995 46.3687 58.6557 44.8001 57.9891C43.2315 57.3225 41.8132 56.3467 40.6299 55.12C41.217 53.163 42.4194 51.4475 44.0587 50.2279C45.698 49.0084 47.6867 48.3498 49.73 48.35H49.79C51.8344 48.3505 53.8241 49.0105 55.4636 50.232C57.103 51.4534 58.3046 53.1712 58.89 55.13C57.7048 56.3535 56.286 57.3266 54.7176 57.9913C53.1493 58.6561 51.4634 58.9991 49.76 59V59Z" fill="#969696"></path>
</svg>
