<svg xmlns="http://www.w3.org/2000/svg" width="48" height="48" viewBox="0 0 1706.66 1706.66">
  <path fill="#969696" d="M1568.5 1302.87l-1430.34 0c-11.04,0 -20,-8.97 -20,-20 0,-54.11 -44.02,-98.11 -98.12,-98.11 -11.04,0 -20,-8.97 -20,-20l0 -622.85c0,-11.04 8.96,-20 20,-20 54.11,0 98.12,-44.02 98.12,-98.12 0,-11.04 8.96,-20 20,-20l1430.33 0c11.04,0 20,8.96 20,20 0,54.11 44.02,98.12 98.12,98.12 11.04,0 20,8.96 20,20l0 622.83c0,11.04 -8.97,20 -20,20 -54.11,0 -98.12,44.01 -98.12,98.11 0.01,11.06 -8.96,20.01 -20,20.01zm-1411.78 -40.01l1393.22 0c8.77,-60.18 56.5,-107.91 116.68,-116.66l-0.01 -585.73c-60.18,-8.77 -107.93,-56.5 -116.68,-116.68l-1393.22 0c-8.77,60.18 -56.5,107.91 -116.68,116.68l0 585.72c60.18,8.76 107.9,56.48 116.68,116.66z"/>
  <path fill="#969696" d="M747.41 623.73c-11.04,0 -20,-8.96 -20,-20l0 -88.93c0,-26.33 40,-26.33 40,0l0 88.93c0,11.04 -8.96,20 -20,20z"/>
  <path fill="#969696" d="M747.41 819.76c-11.04,0 -20,-8.96 -20,-20l0 -88.93c0,-26.33 40,-26.33 40,0l0 88.93c0,11.04 -8.96,20 -20,20z"/>
  <path fill="#969696" d="M747.41 1015.81c-11.04,0 -20,-8.97 -20,-20l0 -88.92c0,-26.33 40,-26.32 40,0l0 88.92c0,11.04 -8.96,20 -20,20z"/>
  <path fill="#969696" d="M747.41 1211.86c-11.04,0 -20,-8.97 -20,-20l0 -88.93c0,-26.33 40,-26.32 40,0l0 88.93c0,11.04 -8.96,20 -20,20z"/>
  <path fill="#969696" d="M1412.73 1066.44c-5.11,0 -10.24,-1.96 -14.15,-5.86l-386.25 -386.24c-18.64,-18.62 9.69,-46.91 28.29,-28.28l386.25 386.22c12.65,12.65 3.5,34.15 -14.14,34.15z"/>
  <path fill="#969696" d="M1342.16 828.14c-86.54,0 -130.06,-105.04 -68.86,-166.22 38.05,-38.03 99.65,-38.06 137.7,0 61.19,61.19 17.41,166.22 -68.84,166.22zm0 -154.71c-75.56,0 -75.56,114.71 0,114.71 75.4,0 75.43,-114.71 0,-114.71z"/>
  <path fill="#969696" d="M1097.06 1073.24c-86.25,0 -130.06,-105 -68.84,-166.22 38.06,-38.06 99.65,-38.07 137.7,0 61.21,61.25 17.37,166.22 -68.86,166.22zm0 -154.73c-75.43,0 -75.41,114.73 0,114.73 75.45,0 75.42,-114.73 0,-114.73z"/>
  <path fill="#969696" d="M580.76 884.19l-319.75 0c-26.33,0 -26.33,-40 0,-40l319.75 0c26.33,0 26.33,40 0,40z"/>
  <path fill="#969696" d="M580.76 991.83l-410.57 0c-26.32,0 -26.32,-40 0,-40l410.57 0c26.33,0 26.33,40 0,40z"/>
  <path fill="#969696" d="M479.74 1099.45l-309.54 0c-26.32,0 -26.32,-40 0,-40l309.54 0c26.32,0 26.33,40 0,40z"/>
  <path fill="#969696" d="M466.19 777.42l-315.96 0c-11.04,0 -20,-8.96 -20,-20l0 -130.2c0,-11.04 8.96,-20 20,-20l315.96 0c11.04,0 20,8.96 20,20l0 130.2c0,11.06 -8.96,20 -20,20zm-295.96 -40l275.96 0 0 -90.22 -275.96 0 0 90.22z"/>
</svg>
